<svg xmlns="http://www.w3.org/2000/svg" id="Capa_1" viewBox="0 0 375.8 373.5"><defs><style>      .st0 {        fill: #007acc;      }    </style></defs><path class="st0" d="M72.5,373.5c.8-24.2-1.1-49.2,0-73.4.4-8.1,1.1-19.4,3.4-27.1,6.7-22.6,30.3-24.1,48.3-33.9,5.5-3,29.1-17.9,28.7-24l-9.9-7.8c-11.1,10.2-45,18-56.6,7.7-9.8-8.6-8.1-43.6-8.3-56.3-1.1-54.3-5.6-111.3,53.5-136.6C183.2.2,265.1,10,289.7,67.3c12.4,28.9,9.2,87.4,5.3,119.2s-3.6,25.5-12.5,29.9c-13.3,6.6-38,1.3-48.8-9-1,2.2-10.6,7.2-10.7,7.9-1,6.1,17.6,18,22.5,20.8,26.2,14.8,54.2,13.2,57,51,.5,6.9.7,14.4.9,21.2.7,21.7-.6,43.5,0,65.1H72.5ZM267.1,100.5c.9.8,2.1,4.4,2.1,5.7,0,6.7-1.8,18.7-2.9,25.7-3.5,21.7-11.4,42.5-22.9,61.2-1.4,10,24.3,15.5,30.5,11,4.3-3.2,5.9-16.9,6.5-22.1,2.6-24.5,3.6-81.9-3.7-104.4-16-49.2-76.6-54.5-120.2-46.3-36.4,6.8-58.4,30.3-61.6,67.7s-1.9,72.6,1.7,97.7c.2,1.7.6,4.6,1.4,6,3.3,5.7,22.7,1.9,28.1-.4,12.5-5.4,3.9-11.5-.2-19.2-11.4-21.7-18.8-50.4-19.3-74.9-.1-4.7,1.9-8.8,7-8.9,18.6-.3,27.3-6.2,42.3-16.7,5.6-3.9,27.2-22.7,31.6-23s2.9.4,4.5,1.1c7.2,3.6,19.2,15.6,27.1,20.9s24.8,16.1,36.8,17.7,9.1-.9,11.3,1.2ZM253.5,115c-25.7-2.9-46.7-21.1-65.9-36.9-18.8,14.9-39.3,34.9-64.3,36.9,3.9,38,19,97,67.9,94.2,23.5-1.4,38.2-18.4,47.7-38.2,8.3-17.5,13.1-36.7,14.6-56ZM209.2,222.1c-14.3,5.6-27.8,3.5-42.4,1-2.2,11.1-13.8,15.3-22,20.9s-1.7-.2-1.2,2c26.2,14,55.1,16.4,82.2,3.3,1-.9,7.2-3,6.4-4.6s-25.1-13.6-23.1-22.6ZM89.2,287.2v69.7h197.6v-67.9c0-1.2-2.3-9.1-3-10.9-2.3-6.3-8.3-11.4-14.2-14.4s-18.7-7.6-20.1-7.5-11.2,6.6-14.2,8c-29.8,14.5-64.8,14.5-94.6,0-4-2-12.1-8.4-15.7-7.9-17.1,2.3-33.8,12.3-35.8,30.8Z"></path></svg>