<svg xmlns="http://www.w3.org/2000/svg" id="Capa_1" viewBox="0 0 375.8 373.5"><defs><style>      .st0 {        fill: #007acc;      }    </style></defs><path class="st0" d="M36.8,304.3c2.9-30,29-48.5,54.9-58.7-7.2-24.2-12.1-50.2-14.2-75.4-2.8-34.2-6.7-87.6,9.3-118.2C113.1,1.6,186.7-7,235.9,8.9c70.3,22.7,67.6,90,63.5,151.8s-7.7,57.1-15.2,84.9c21.7,9,45.2,23,52.3,47.1.6,2,2.5,10.2,2.5,11.6v67.5H36.8v-67.5ZM269.1,238.6c6.6-22.2,10.4-45.3,12.3-68.4,5.8-69.8,13.1-141.7-75.1-150.6s-95.2,3.7-109.5,51c-8.2,27.1-4.4,80.9-1.4,110,2,19.6,5.9,39.1,11.4,58,1.9,1.6,27.3-10.5,31.1-12.8s8.1-5.4,10.9-8.9c7.9-9.8,2.7-8.3-3.8-14.2-26.7-23.9-39.4-67.5-40.2-102.5-.3-13.1,14-8.3,23.1-9.1,36.9-3.2,61.3-23,92.3-38,3.9-1.9,8.8-4.7,13.1-2.9,8,3.4.4,13.4,2.3,19.4s8.2,9,10.8,10.9c6.2,4.5,24.7,10.4,24.7,17.8,0,35.9-15,80.3-41.6,104.9-1.6,1.5-6.7,4-6.6,5.6.1,4.2,5.9,10.3,9,12.8,6.2,5.2,25.6,14.5,33.5,16.6s2.4.7,3.7.4ZM220,72.4c-1.1-.2-1.8.1-2.8.5-8.2,3.2-19.9,12.3-28.7,16.7-20.6,10.3-43.4,18.3-66.8,17.8,4.3,36.7,17,92.5,62,96.2,31.7,2.6,49.9-21.7,60.3-48.1,6.2-15.8,9.9-32.6,11.7-49.5-13.4-8.3-33.5-15.8-35.7-33.6ZM209.6,216.9c-14.6,5.8-28.5,3.6-43.4,1-2.3,11.3-14.1,15.6-22.5,21.4s-1.8-.2-1.2,2.1c26.8,14.3,56.3,16.8,84.1,3.3,1.1-.9,7.3-3.1,6.6-4.7s-25.7-13.9-23.6-23.2ZM322.9,354.8v-45.8c0-.6-1.1-5.9-1.4-7.1-6.8-30.1-44.6-39.5-69.2-49.8-3.8-.6-12,6.1-16.1,8.1-30.2,14.8-66.5,14.8-96.7,0-5-2.4-9.3-6.2-14.5-8.2-25.1,9.5-64.1,20-70.8,50s-1.4,6.5-1.4,7.1v45.8h270.1Z"></path></svg>