<svg xmlns="http://www.w3.org/2000/svg" id="Capa_1" viewBox="0 0 375.8 373.5"><defs><style>      .st0 {        fill: #fff;      }    </style></defs><path class="st0" d="M298.2,256.4c-4.9-3.2-10.1-5.6-15.1-8-6.5-3.1-12.7-6-18.1-10.3,11.3-7.4,16.6-21.6,13.7-37.1,9.2-3.8,15-11.7,15.2-21.1.2-9.7-5.6-18.6-14.9-23,18.4-32.8,13.5-76.9-12-105.4-20.7-23.2-49.2-29.4-78.7-17.4.9-10.4-4.6-16.7-10.6-18.2-6-1.5-13.9,1.4-17.8,11.1-9.1-5.5-18-4.5-24,2.7-3.6,4.3-3.7,9.1-3.8,11.7,0,.4,0,.8,0,1.1-.3,0-.8.2-1.2.3-2.8.6-8.1,1.6-11,7.4-2.9,5.9-.9,9.8,1.5,14.2-11,5-19.6,14-24.4,25.7-5.2,12.8-5.1,27.3.4,39.7,2,4.5,7.2,11,12.2,17.3,4.3,5.4,9.2,11.5,9.5,13.6,0,.5-1.3.8-3,1.2-1.6.4-3.4.8-4.9,1.7-10.3,6.3-11.5,18.3-8.3,26.8,2.8,7.4,10.2,15.3,22,14,1.5,19.2,14,36.7,31.8,44.9-27.4,10-64,26.7-82.1,57.9-12.1,20.8-14.9,43.1-7.5,59.8l.2.4.4.2c3.3,2.1,11.7,1.8,19,1.6,2.8-.1,5.5-.2,7.3-.1,35,1.8,70.1,1.1,104.1.4,5.9-.1,11.9-.2,17.8-.4,2.2,0,4.5-.1,6.9-.2,12-.5,25.6-1,34.7,4.4l.3.2h43.6l13.8-4.2,37.2-.8.4-.9c18.3-43.1-23.8-91.1-54.6-111.2ZM285.4,305c-5.7-4.2-11-8.2-15.5-12.2-1.2-7.1.3-14.1,1.7-21,1.3-6.3,2.7-12.7,2-19.4,44.1,20.5,83.3,61.7,73.8,109.5h-25.7c5.9-25.6-16.6-42.3-36.4-57ZM136.1,326.4c-1.1-.5-1.8-.2-2.1,0l-.4.3v.5c-3.2,13.2-3.8,24.3-1.9,34.7h-58.8c-5.1-24.7,2.5-48.1,21.9-67.9,16-16.2,39.5-29.4,64.9-36.3-1.4,15,4.7,27.7,16.9,34.8,14.7,8.7,34.4,7.4,49.3-3.2,3,2.4,5.2,6.3,6.1,10.8,1.4,7.2,1.3,15,1.2,22.5-.2,13.5-.4,27.4,7.7,39.2h-101.8v-32.3c0-1.4-2.7-3.2-3-3.3ZM130.2,195.7c-7.6,1.9-14.1.2-18-4.5-3.4-4.1-4.2-9.8-2.1-14.5,2.2-4.8,7-7.7,13.6-8.1.7,1.8.8,3.8,1,5.9.3,3.8.6,7.8,4.2,10.7l.9.7.9-.7c13.9-10.7,11.5-31.4,9.6-48.1-.3-2.7-.6-5.3-.8-7.8,6.7-2.3,11.9-5.7,16.6-11,2.1-2.3,4.1-5.8,6.3-9.5,3.5-5.9,7.4-12.6,11.2-13.5,1.7-.4,3.6-.3,5.5-.2,1.8,0,3.7.1,5.5-.2,9.7-1.8,15.1-7.1,21.2-13.2l.3-.3c8.7,6,16.3,10.6,26.9,12.1,1.4.2,3.3.1,5.3,0,2.6-.1,6.9-.3,8,.6l15.7,77.6.3.3c1.6,1.5,3.1,2.1,4.6,1.8,2.5-.4,3.9-3.1,5.2-5.8.8-1.6,1.9-3.8,2.7-3.9,3.1-.4,9.6,6,10.4,9.5,2.9,12.7-3.6,17-14.6,22.7l-1,.5.2,1.1c3.3,14.6.7,25.3-7.9,32.6-1.9-.4-8.7-5.6-10.6-7.5-.9-1-1.4-2.1-2-3.4-.6-1.3-1.1-2.6-2.2-3.8-1.3-1.5-3.7-3-5.3-4-.4-.2-.6-.4-.8-.5-.2-.7-.4-2.4-.6-3.9-.4-3.7-.9-8.8-3.1-12.9-7.3-13.6-23.8-20-42-16.5-15.8,3.1-32.6,14.3-34.6,32.3-.7,6.7.4,11.5,3.5,14.9,5.3,5.7,14.8,5.5,24.1,5.3,1.1,0,2.2,0,3.3,0-3.6,4.2-5.3,9.6-6.6,14.9-12,2.2-24.7-1.6-35.1-10.3-11.7-9.9-18.4-24.2-17.9-38.3v-1.9c0,0-1.8.5-1.8.5ZM135.9,59.7l-1.4.4c-3.4.9-6.1.3-7.5-1.8-1.2-1.7-1.2-4.1,0-5.7,1.4-1.9,4.1-2.3,7.4-1.3.3.1,1.2.7,1.9,1.2,2.9,2,6.6,4.5,9.2,3.5.8-.3,1.8-1.1,2.1-2.9.4-2.1-1.5-3.9-3.7-5.9-2.3-2.2-5-4.6-4.9-7.4,0-1.9,1.3-3.9,3.7-6,3.3-2.9,8.1-3.2,11.7-.6,1.4,1,2,3.4,2.6,5.7.7,2.7,1.4,5.4,3.3,7.1l.4.4h.5c2.2,0,2.8-2.8,3.8-7.4,1.8-8.6,4-16.2,10.4-15.6,2.4.2,4.2,3.2,4.6,5.9.4,2.4-.6,4.7-1.5,6.9-1.3,3.1-2.8,6.7.4,9.7l.8.7.9-.5c30.2-16.2,59.1-12.7,79.5,9.6,21.6,23.6,30.3,68.7,8.6,104.5l-16.5-72.6-3.1-2.1h-.6c-17,4-32-5.6-43.2-14.4l-.9-.7-.9.8c-1.9,1.6-3.5,3.8-5.1,5.9-2.4,3.1-4.9,6.3-7.9,7.9-4.1,2.1-8.5,2.3-12.7,2.5-2.6.1-5.3.3-7.9.8-4.9,1.1-9.1,7.9-13.6,15.2-2.9,4.7-5.9,9.6-8.8,12.1-4.6,4.1-10.7,6.5-16,8.4l-1.1.4.2,1.4c2.2,14.1,4.7,30.1,1.2,44.1,0,.2,0,.3-.1.5-1.3-10.1-8.1-18.1-14.7-25.9-4.8-5.7-9.3-11-11.7-17-5.6-13.7-4.8-28.9,2-40.7,6.1-10.6,16.5-17.3,29.1-19l1.6-.2-2.2-8ZM251.7,307.6c6.2-2.4,14.7-5.6,17-4.8,1,.4,8.1,5.2,10.5,7.1-8.6,11.3-25.7,13.6-38.4,12.1l-1.1-10.3c3-.6,7.4-2.3,12-4.1ZM263.2,274.3c-1.3,7.8-2.5,15.1-1.3,20.3l-20.9,8c-1-16.8-13.4-22.2-25.3-27.6-12.9-5.7-25.1-11.2-21.9-31,.9-5.5,5.9-12.1,11.6-15.4,1.8-1,4.3-2.1,7-2.1s1.9.1,2.8.4c.3,3.9-2.1,7-4.7,10.2-2.5,3.1-5.1,6.4-5.3,10.6v.3s0,.2,0,.2c.7,2.3,3.1,3,5.6,3.7,4.9,1.3,10.9,3,10.7,16.8,0,4.1,1.7,5.8,3.3,5.9,2.1.2,4-1.8,4.6-4.9,1.2-6.3-.6-13.3-4.5-18.4-2.7-3.4-6.2-5.7-10-6.6l6-7.6c0,0,.1,0,.2,0,.8.6,1.2,3.4,1.5,5.4.3,2.3.6,4.4,1.5,5.9,1.1,2,3,3.1,4.5,4,.7.4,1.6.9,1.8,1.2.7,1.1.9,2.8,1.2,4.7.6,4.6,1.5,10.9,10.1,12.9,12,2.8,14.8-2.7,17.8-11.4l.3-.9-.7-.6c-2.4-2.3-4.1-3.1-5.7-2.7-1.9.5-2.4,2.6-3,4.6-.5,1.8-1,3.7-2.3,4.1-2.8.9-5.2.3-7-1.8-2.8-3.3-3.2-9.5-1-14,2.3-4.6,6.8-7,12.6-6.6,4.3.2,7.4,1.6,9.3,4,4.7,5.8,2.7,17.7.9,28.2ZM171.4,253.2l14,1.3,7.4,15.5c-9.6-1.1-17.8-7.5-21.4-16.8ZM198.3,278.2c1.2-.2,2.5-.5,3.8-.3,2.3.4,4.8,1.6,7.4,2.9,3.3,1.6,6.7,3.3,10.2,3.7,0,0,0,0,0,0-.3.1-.8.3-1.4.6-11.2,7.1-26.8,7.3-37.9.5-8-4.9-12.4-12.4-12.6-21.5,7.2,8.5,14.4,12.2,26.8,14.3,1.3.2,2.5,0,3.7-.3ZM232.7,208.3c-2.4,0-5,1.5-7.3,2.7-1.1.6-2.9,1.6-3.4,1.5-.7,0-2.6-1.1-4.1-1.9-2.5-1.3-5.3-2.8-7.7-3.2-8.8-1.5-17.5.3-24.3,5-2.1,1.4-3.7,3.5-5.2,5.5-1.8,2.4-3.6,4.6-5.4,4.7-1.2,0-2.6-.7-4.2-2.2-1.4-1.4-2.1-3.3-2.1-5.7,0-6.7,5.4-15.7,9.3-19.7,2.4-2.4,3.9-3.3,5.2-3.3s2,.7,3.3,1.6c1.6,1.2,3.5,2.6,6.4,3.2,6.3,1.3,14.5.5,19.9-1.9,1.6-.7,3-2,4.3-3.1.8-.7,1.8-1.6,2.2-1.7,2-.5,4.9,1.1,7.7,4.3,3.9,4.5,6.2,10.5,5.5,13.9ZM203.3,215.3c4.5,0,9,1.1,13.1,3v1.4c-6-1-12.6.3-19,1.4-3.6.7-7.4,1.4-11,1.6,4.2-5.2,10.4-7.4,16.8-7.4ZM228.9,217.8c1.2-.6,2.6-.9,4-.9,2.9,0,5.9,1.3,8.3,4.4-4.6.3-8,2.7-11.4,5-1.7,1.2-3.4,2.4-5.2,3.2-2-6.2,1-10.2,4.3-11.8ZM202.4,189.5c-5.2.5-10.4-.4-12-2.1,0,0,0-.1-.1-.1.2,0,.5-.2.7-.2.3,0,.6-.2.9-.3,3.4-1.3,17.2-2,20.1-.6-1.7,1.7-5.2,2.9-9.5,3.3ZM237.4,239.8c-1.1.9-1.9,2.2-2.7,3.4-.6.9-1.6,2.5-2.1,2.5,0,0-.6,0-1.7-1.6-1.6-2.3-1.7-4.7-.3-7.2,2.3-4.1,8.3-7.2,13.6-7.2s.7,0,1,0c2.5.2,5.6,1.1,7.7,4.3-5.8-.3-10.1,1.4-15.5,5.7ZM241,330.5c18,1,34.4-4.5,45.3-15.1,15.5,12.2,32.1,29.8,29,40.4-1.7,5.7-9.2,9.2-22.2,10.4-17,1.5-34.1,1.6-43.5-7.4-6.1-5.8-8.9-15-8.6-28.2Z"></path><path class="st0" d="M67.5,281c9.1-4.4-.7-23-5-22.2-3.3.6-1.1,3.2-.4,4.7,1.9,4,4.8,7.4,3.9,12.5-8.1,3-7.4-2.7-9.9-8-.9-1.9,0-3.5-3.7-2-4,1.5,0,6.4-.7,7.2-8-7.9-24.2.7-20.9,11.5,4.3,13.9,26.2,5,22.4-8.7,4.6,3.6,7.7,8.2,14.3,5ZM38.3,285.8c-5.6-1.9-1.1-10.3,4.4-11.1,9.9-1.4,5.4,14.4-4.4,11.1Z"></path><path class="st0" d="M268.9,29.3c6.6,5.9,15.3,2.7,20.8-2.9-.8,7.2,1.8,12,9.3,13,8.5-3.5,10.5-11.4,9.4-20.2h-4.3c.6,5-.5,13.4-6.5,14.4-7.6-.9.8-14.4-.7-15.8-3-2.9-5.2,3.8-7.1,4.3-3.6-20.7-35.4-5.7-20.8,7.2ZM277.6,17c12.1,0,5.4,16.1-4.2,9.3-5.2-3.7-1.9-9.2,4.2-9.3Z"></path><path class="st0" d="M321.9,45c13.8-1.6,12.2-18.2-2-12.9l7.2,4.3c-1.5,4.1-7.5,3.1-11.3,2.6-4.4-9.2,5.6-10,12.7-10.5,3.8-5-2.5-5.4-6.3-5-16.6,1.8-16.7,23.2-.3,21.4Z"></path><path class="st0" d="M84.5,254.3l-2-5.5c-28,18.2,11.5,41.1,10.6,7.3-4.6-2.7-8.1-.4-11.3,3.4l2.1,3.5,5-2.8c-5.2,18.3-20.1,1.2-4.5-5.9Z"></path><path class="st0" d="M261.7,26.5l.8-4.4c-7.7-.1-17.3,2.7-13.7-8.7,3.6-5.1,17.3,2.2,18,1.5.3-.3,1.5-3.7,0-5-20.6-17.6-39.8,22.9-5.2,16.6Z"></path><path class="st0" d="M16,297.3c-1.1-.7-1.8-5.1-1-6.9,2.3-5.3,11.3-6.2,13-8.7,3.9-5.6-17.1-2-18.1,9.3-1.5,16.5,19.7,14.9,23.1,1.5-4.3-6.4-9.2,9.8-17,4.8Z"></path><path class="st0" d="M104.8,262.3c.2-4.2-6.4-7.5,2.8-9.3,0,5.2,6,5.5,5.6,1-.1-1.7-7.9-15-9.1-15.3l-3.4,3.4,2.7,4.5-3.6,5c-11.9-15.1-4.5,14.2,5,10.8Z"></path><path class="st0" d="M334.9,47.9c2.4,4.2,4-4.4,5-5.1,1.7-1.2,3.9-.6,5.8-.6l-1.4,5c6.3,9.1,12.4-23.2,3.6-16.4l-3,7.1c-7.7-.2-2.5-4.9-4.9-6.4l-4.3-.7c.7,5.2-3.4,12.5-.7,17.2Z"></path><path class="st0" d="M340,129c-1.3-6.2-32.2,2.2-36.4,5.2-2.5,1.8-2.7,2.5-2.3,5.6,7.8-1.3,14.7-5.5,22.6-6.8,3.5-.6,17.2,1.2,16.1-3.9Z"></path><path class="st0" d="M333.5,169.8l2.1-5.6c-11.3-4.2-21.9-11.1-34.4-11.5l1.5,5c10.9,2.3,21.3,6.3,30.8,12.2Z"></path><path class="st0" d="M317.7,148.3c4.8.5,9.8,2.6,14.4,2.9,3.1.2,3-2.8,2-4.2-1-1.5-32.3-8.5-34.3-.8,0,3.4,14.9,1.8,17.9,2.2Z"></path><path class="st0" d="M67.5,220c7.3-2.2,13.6-5.6,21-8.4,7.7-2.8,5.5-6.6-1-5.3-2.9.5-24.7,8.9-20,13.7Z"></path><path class="st0" d="M84.7,192.1c5.9.2,5.8-4,.7-5.1-2.6-.5-18.6-2.2-19.3-1.5-1.9,7.6,12.4,6.3,18.7,6.5Z"></path><path class="st0" d="M365.8,29.3c-3.1-.5-4,2-5,4.3-1,2.3-5.4,14.9-1.4,15.8,4.2.9,7.1-17.1,6.4-20.1Z"></path><path class="st0" d="M121.2,248.7c3.2-.6,1.1-3.5.7-5-.4-1.7-5.3-13.1-5.9-13.5-9.4-6,.8,19.2,5.2,18.4Z"></path><path class="st0" d="M126.7,258.8c2.5.5,2.7-2.1,3.2-2.6.8-.8-2.5-4.3-2.9-4.6-6.6-4.3-3.7,6.5-.2,7.2Z"></path><path class="st0" d="M87.5,202.8l-2.3-5.6c-5.3,2.6-12.3-.8-16.4,3.5-1.3,6.3,15.2.4,18.6,2.1Z"></path><path class="st0" d="M216.6,155.5c9.3-3.5,14.9-2.3,24.1-1.8,7.8.4,7.3-3,1-5.3-6.5-2.4-25.3-2.8-25,7.1Z"></path><path class="st0" d="M165.9,152.7c5.4-.5,9.7,1.7,14.9,1.3v-4.2c-2.1-3.2-32.5-3.2-30.1,8.5,5.7-.4,9.2-5,15.2-5.6Z"></path><path class="st0" d="M215.2,167c-5.3-.3-8.4,4-13.6,4.4-6.1.4-13.6-5.9-15,.6,1.2,5.4,30.3,6.4,28.7-5Z"></path><path class="st0" d="M219,134.2c7.3-3,14.1-9.2,23.4-8.9-.7-10.7-28.3,2.7-27.2,7.9.5,2.4,2.1,1.7,3.8,1Z"></path><path class="st0" d="M164.3,128.1c4.9,0,11,4.2,15-.6,0-4.4-23.7-4.5-27.7-2.2l-1,4.3c4.7.9,9.2-1.5,13.6-1.5Z"></path><path class="st0" d="M354.4,58.7c.9,2.4,3.2,1.2,3.9,1.3,1.1.2,2.3-4.4,2.3-4.9.1-7.9-7.5.4-6.2,3.6Z"></path></svg>