<svg xmlns="http://www.w3.org/2000/svg" id="Capa_1" viewBox="0 0 375.8 373.5"><defs><style>      .st0 {        fill: #007acc;      }    </style></defs><path class="st0" d="M172.8,4.5c153.9-10.8,253.6,159.7,164.8,287.2-78,112-249.3,101.2-312.2-19.8C-34.6,156.3,42.9,13.6,172.8,4.5ZM297.2,308.4c69.2-60.4,72.6-168.3,9.6-234.8C199.6-39.5,8.1,48.6,24.1,203.8c4.1,40,23.6,78.4,53.9,104.6v-43.4c0-11.9,16.4-26.1,25.9-31.7s51.9-20.7,55-26.3-7.4-9.6-9.6-12.4c-31.3-38.4-33.9-129.8,30.6-135.6,77.5-7,82.5,91,46.1,135.6-2,2.5-10.6,9.2-9.9,11.7,1.4,5.3,47.2,22.2,55.3,27s25.9,19.7,25.9,31.7v43.4Z"></path></svg>