<svg xmlns="http://www.w3.org/2000/svg" id="Capa_1" viewBox="0 0 300.7 276.2"><path d="M130.9,109.9h64.9c.2,0,2,2.2,2.7,2.6,1,.7,3.7,1.5,4,2.5l-5.2,21.1c.5,3.9,2.6,4.2,5.8,2.8,13.4-5.9,27.5-17.1,40.9-23.7h22v135.7h-52.6l-.9-1.5c-4.3-13.2-1.9-33.4-17.7-38.9-.8-15.7,1.2-32.5,0-48.1-3.6-49.2-70.2-51.7-78.7-4.7v52.2c-6.6,3.7-10.6,6.9-12.7,14.4s-3.6,18-5.5,26.6h-53.5v-50.5l6.9.5,36.6,21c3.1,1,4.9-.8,4.6-4-.6-5.7-3.8-12.5-4.6-18.3,4.2-1.8,7.6-5,8.8-9.5v-55.8c.3-3.3-6.5-10.3-9.1-10.3h-43.2v-14.1h71.4c2.9,2.2,9,12.9,12.3,12.9,5.4,0,2.3-9.7,2.6-12.9Z"></path><path d="M124.5,109.3l-28.5-34.1-2-1.5-72-.8c-2.6-1.5-4.1-3.1-4.4-6.2-1.7-18.6,1.4-39.9,0-58.8.3-2.8,2.2-5.4,5-6.2,35.3-.9,71.1-.9,106.4,0,2.8,1.2,4.6,3.1,5,6.2v58.8c-.4,3-2.4,5.5-5.3,6.5-1.9.7-4.7-.2-5.3,2.9s.5,9.9.6,14.1c.2,6.4.2,12.8.6,19.1ZM121.3,23.9c6.9-7.4,1-19.3-9.5-18-2.8.3-23.8,10.7-26.1,12.7-7.9,7.1-2,19.8,9.1,18.5,2.9-.4,24.6-11.1,26.5-13.1ZM35.6,14.8c-3.8.7-6.9,3.7-7.9,7.4s-2.5,23.6-1.9,28.1c1.3,10.5,18,12,20.8.8s2.5-21.3,2.2-26.1c-.5-7-6.3-11.3-13.1-10.1ZM61.5,27.8c-7.1,1.2-10.5,10.4-6.6,16.3s17.9,17.6,20.4,19c9.8,5.4,20.3-5.8,14.8-14.8s-17.6-17.4-20.3-19.1-5.6-1.8-8.4-1.4Z"></path><path d="M205.6,129.8c-.6-.7,4.8-15.9,4.5-18.4s-3.2-2.4-5-3.1c-3.1-1.2-5-2.3-6-5.8,1.3-18.6-1.8-39.8,0-58.2s3.7-7,8.5-7.3c27-2.1,56.8,1.7,84.1,0,4.2,0,8,3.2,8.5,7.4-1.3,18.1,1.7,38.6,0,56.4-.4,4.5-3.5,7.4-8,7.9-15.6,1.7-33.9-1.4-49.8.1l-36.8,21ZM240.2,52.6c-.4,2.7.3,6.3,0,9.1-7.6-1.1-17.7.6-17.7,10.3s4.2,10.3,8,10.3h9.7v9.7c0,3.8,6.6,7.9,10.3,8,9.9.2,10.9-9.5,10.5-17.1.8-1.1,6.9-.3,8.8-.6,8.8-1.2,11.8-12.7,4.9-18.3s-8.5-2-13.4-2.2c0-4.6.4-10.8-2.9-14.4-5.7-6-16.8-2.9-18.2,5.3Z"></path><path d="M84.5,212.1l-33.4-18.5c-14.2-1.7-31.1,1.4-45-.2s-5.3-3.3-5.6-6.7c-1.5-16.2,1-35.1.3-51.4,1.3-3,2.6-4.4,5.9-4.7,24.6-2.3,52.6,1.8,77.6,0,5,0,6.4,4.2,6.7,8.5,1,12,.9,33.8,0,45.9s-.9,6.8-4.2,8.2-5.4.3-6.2,3.3,3.4,12.8,3.9,15.9ZM15.4,147.3c.6.7,2.2.7,3.1.8,5.8.5,19.7.7,25.3,0,4.4-.6,4.1-5.8,0-6.5s-20.5-.6-25.2,0c-3.1.4-5.4,3.4-3.1,5.7ZM16.1,158.6c-3.1,2.6-1.5,6.1,2.4,6.4,17-.8,35.4,1.3,52.3,0,4.6-.3,8.4-1.5,4.7-6.5H16.1ZM76.2,176.4c-.6-.6-2.2-.7-3.1-.8-17.7-1.5-37.4,1.2-55.3,0-4.5,0-4.3,6.1,0,6.5l57.6-.6c1.6-.9,2-3.9.7-5.2Z"></path><path d="M103.9,257.3c1.4,7.5,6.3,12.1,13.9,12.9,24.3-1.1,50.4,1.8,74.6,0,8.2-.6,14.4-4.3,15.5-13h82.2c1,8-2.8,15.4-10.4,18-81,1.7-162.4.3-243.6.7-10.1-1-15.2-9.1-14.4-18.8h82.2Z"></path><path d="M161.5,153.9c3.4,5.7,9.8,9.7,15.6,12.9,3.8,15.7-12.9,39.2-29.9,29.9-10.9-6-15.2-19.3-13.9-31.2,9.8-3.1,19.3-6.4,28.2-11.5Z"></path><path d="M104.5,250.9c1.5-7.2,2.7-14.5,4.5-21.6s1.2-5.7,2.6-7.9c3-4.6,11.3-5.8,16.1-8,.9,0,.4,14.3,2.6,16.2s10.1-1.5,13.6-1.5l2.4,22.9h-41.7Z"></path><path d="M206.1,250.9h-41.7l2.4-22.9c3.4-.1,11.1,3.8,13.8,1.8s1.3-13.2,2.6-16.5c9.1,4,14.7,2.9,17.8,13.6s3.3,16.1,5.1,24Z"></path><rect x="272.5" y="115.2" width="6.5" height="135.7"></rect><path d="M122.7,160.4c.9-22.5,28-37.8,47.6-26.1-10,16.5-29,24.1-47.6,26.1Z"></path><path d="M110.4,103.4H39.6c-.1,0-1.5,1.8-1.5,2.1v18.5h-6.5v-23.2c0-.7,3.1-4.3,4.4-3.8l70,.6,4.4,5.9Z"></path><path d="M201.4,257.3c-1.2,5.4-5.5,6.2-10.3,6.5-23.2,1.6-48.3-1.2-71.7,0-4.1-.4-8.2-1.8-8.5-6.5h90.5Z"></path><polygon points="192 96.9 192.6 103.4 130.9 103.4 130.4 96.9 192 96.9"></polygon><path d="M188.5,208c-5.8-.9-10.9-5-17-4.1-1.8-5.6,2-6.3,4.9-10,5.2-6.6,7.9-15.6,7.4-24l4.7,1.5v36.7Z"></path><path d="M126.8,166.3v9.1c0,5.6,4.8,14.9,8.2,19.4,2.5,3.2,6.2,4,4,9.1-5.9-.6-10.8,3-16.4,4.2v-41.1l4.1-.6Z"></path><rect x="31.7" y="200.3" width="6.5" height="50.5"></rect><path d="M166.2,213.9l-5.1,9.2-3.1,27.7h-5.3s-2.5-26-2.5-26l-5.1-11c2.4,1,7.4,5.2,9.7,5.3s10.9-5.8,11.5-5.3Z"></path><path d="M187.9,163.9c-8.7-1.9-15.9-7.2-21.7-13.8l9.7-12c7.7,5.7,12.4,16.3,12,25.8Z"></path><path d="M165,203.3l.6,3.5-9.8,5.2c-1.4.2-10.4-5.1-10.5-6s.6-1.8.4-2.7c6.1,3.4,13.2,3,19.4,0Z"></path><path d="M141.5,222.1l-6.5,1.2c.8-2.2-2-11.9.3-12.9l6.2,11.7Z"></path><path d="M176.8,210.9l-1.2,12.3-5.9-1.2c-.5-.5,4.5-9.8,5.2-10.8s1.1-.3,1.8-.4Z"></path><path d="M102.2,27c-3.6,1.8-14,7.2-13.5-.8s6.9-5.2,9.6-6.8l3.9,7.6Z"></path><path d="M104.5,15.9c3.6-.7,8.8-6,12.1-2.4,4.7,5.1-4.6,8.6-8.2,10l-3.9-7.6Z"></path><path d="M41.6,33.5l-8-.6c-.7-4.1-.6-13.6,5.8-11.7s1.9,8.7,2.2,12.2Z"></path><path d="M32.9,40c1.7.2,7.5-.9,8.1.9-.1,4.3.3,13.3-6.4,11.1-3.7-1.2-2.3-9-1.7-12Z"></path><path d="M77.3,45.3c2.8,2.1,9.2,5.7,7.4,9.8-2.9,6.7-9.8-.6-12.4-3.7l5-6Z"></path><path d="M62.6,34.2c4.4-1,7.3,4.2,10.1,6.6l-5.7,5.5c-3.7-1.5-12-10.5-4.5-12.2Z"></path><path d="M230.4,75.1c-1.5-1.4-1.5-5.2.2-6.4,3-1.9,12.7,1.1,15.2-1.7s-2.2-15.8,4.2-16.4,3.3,13.1,5.5,16.2c2.8,4,15.8-2,16.5,4.7s-13.2,1.9-16.2,5.5,2,15.9-4.7,16.5c-7.7.7-2.1-13.8-5.5-16.7s-12.9.5-15.1-1.6Z"></path></svg>