<svg xmlns="http://www.w3.org/2000/svg" id="Capa_1" viewBox="0 0 375.8 373.5"><defs><style>      .st0 {        fill: #fff;      }    </style></defs><path class="st0" d="M156.5,27.3c16.5-13.6,39.2-7.9,48.3,11.2,10.2-6.5,18-9.4,30-4.9,25.6,9.6,18.6,37.5,19.8,59.2,77.1,26.1,108.6,123.6,60.2,189.7l51.2,52.1c7.8,14.8-16.7,38.9-31.2,28.4l-50.3-50.1c-15.5,11.2-33.6,18.5-52.5,21.4-2.7,12.5,1.1,26.5-14.9,31.2l-125.6.4c-8.5-1-15.1-7.7-16.1-16.1-3.6-29.7,7.9-51.1-10.6-78.9-16.8-25.3-52.5-55.3-55.1-86.1-1.5-17.8-2-60.7.7-77.7,3.3-20.8,20.7-36.5,41.2-39.2,1.1-10.2-1.4-21.8,1.1-31.8,5.6-22.4,34.4-30.1,50.1-12.9,12.8-22.1,45.4-20,53.9,4.2ZM62.8,43.4v123.8c-2.7,1.9-11.2,1.5-11.2-2.1v-84.6c-12.8.7-26.2,12.6-28.8,25.1s-2.2,68.8-.5,83.1c3.1,26.1,50.5,62.8,60.7,90.4,7.8,21.1.6,45,3.6,66.3.6,3.8,1.4,8.3,6.1,7.9l124.6-1.4.6-15.5c-92.7,2.2-157.8-90.5-120.1-176.7,24.1-55,85.3-84.5,143.9-70.8v-32.9c0-.4-4-6.5-4.7-7.2-8.9-8.9-25.5-5.3-29.7,6.5-1.2,3.5-.8,14.3-8,12.5s-4.4-15.5-5.3-21.4c-2.4-15.7-24.3-20-32.7-6.3-3.6,5.9-.5,18.2-11,15.1s-3.2-13.6-3.8-18.6c-2.3-20.9-31.1-21.2-34.6-3.9s.9,15.4-5.5,17-6.8-7.4-8.1-11.1c-7-20-32.8-15.1-35.7,4.9ZM201,97.6c-81.1,7.9-126.9,97.7-87.1,168.8,42.5,76,153.4,76.4,196.8.9,46.2-80.4-17.9-178.7-109.6-169.8ZM307,293.1l-12,12,6.4,7.4,13-12c.3-1.8-5.6-7.7-7.4-7.4ZM323.6,308.4l-13.3,13.3c5.8,4.3,28.4,31.1,32.9,31.5s13.6-8.7,11.1-14c-3.4-7.2-25.4-22.6-30.8-30.8Z"></path><path class="st0" d="M218,300v-35.7c0-17.9,21.8-44.9,23.8-62.9,2.6-23.5-2-51.4,0-75.4-5-1.6-12.5-2.2-11.1-9.6,3.1-11,33.6,6.5,39.4,10.4,110.1,75.1-5.2,244.6-116.4,166.8-82-57.4-37.1-190.6,62.9-183.2,6.7,13.3-13.4,10.7-22.5,12.6-57.3,11.9-87.1,73.7-62.2,126.7,15.3,32.5,50.2,52.4,86.1,50.3ZM230.6,298.6c49.3-11.7,79.6-57.4,69.3-107.7-5.1-24.6-22.7-48-45.5-58.7v69.2c0,14.2-23.8,47.9-23.8,58.7v38.5Z"></path><path class="st0" d="M228.9,179.4c-10.3,10.4-17.3-20.7-2-16.2s4.9,13.3,2,16.2Z"></path><path class="st0" d="M228.9,194.1c2.9,2.9,3.2,14.6-2,16.2-15.3,4.6-8.2-26.6,2-16.2Z"></path><path class="st0" d="M205.1,170.3c3.2,3.2,2.6,15.8-3.2,16.5-14,1.7-7.1-26.9,3.2-16.5Z"></path><path class="st0" d="M205.1,259.8c3.2,3.2,2.6,15.8-3.2,16.5-14,1.7-7.1-26.9,3.2-16.5Z"></path><path class="st0" d="M198,139.4c11.8-3.9,11.3,18,2.6,18-7.5,0-8.5-16.1-2.6-18Z"></path><path class="st0" d="M181.3,212.2c3.2,3.2,3,15.5-3.5,16.1-14,1.5-6.5-26.3,3.5-16.1Z"></path><path class="st0" d="M198,228.9c11.8-3.9,11.3,18,2.6,18-7.5,0-8.5-16.1-2.6-18Z"></path><path class="st0" d="M157.6,236c3.2,3.2,3,15.5-3.5,16.1-14,1.5-6.5-26.3,3.5-16.1Z"></path><path class="st0" d="M174.3,181.4c11.6-3.5,11.5,17.5,2.5,17.5-7.6,0-9-15.5-2.5-17.5Z"></path><path class="st0" d="M176.8,150.8c8.3,0,9,17.8,0,17.8s-8.3-17.8,0-17.8Z"></path><path class="st0" d="M153,174.6c6.3,0,8.4,12.2,4.2,16.3-10,9.9-16.1-16.3-4.2-16.3Z"></path><path class="st0" d="M198,199.5c12.6-3.7,12.1,20.3,0,16.4s-5.9-14.6,0-16.4Z"></path><path class="st0" d="M150.5,205.2c11.2-3.3,11.3,15.6,3.3,17.3-7.8,1.7-10.4-15.2-3.3-17.3Z"></path><path class="st0" d="M176.8,240.3c8.3,0,9,17.8,0,17.8s-8.3-17.8,0-17.8Z"></path><path class="st0" d="M221.8,133.8c10.8-3.6,11.7,14.4,5.1,16.3-11,3.3-10.8-14.5-5.1-16.3Z"></path></svg>