<svg xmlns="http://www.w3.org/2000/svg" id="Capa_1" viewBox="0 0 375.8 373.5"><defs><style>      .st0 {        fill: #fff;      }    </style></defs><path class="st0" d="M110.1,338.3c-45.9-26.9-48-92.4-4.7-123.4,15.9-11.4,33.5-14.5,52.9-14.5,2.3-.7,2.4-4.7,3.5-6.6-19.8-1.3-36.3-16.3-39.3-36-23-6.1-32.3-31.9-16.4-50.5-11-22.3-11.4-45.7,5.9-64.8,27.9-30.8,68.4-6.1,100.5-22.3,9.4-4.7,16.1-12.2,22.4-20.3,31.5,20.6,49,56.6,41.1,94.3-.6,2.9-4.7,14.2-4.6,15.3s4.4,6.9,5.2,9.5c5.4,17.8-5.9,34.1-23.1,38.8-3.1,20.1-19.4,34.2-39.3,36.3l3.5,6.2c21.1-.1,40.7,4,57.1,17.7,39.1,32.5,35,94.5-9,120.1v35.2H110.1v-35.2ZM187.9,50.1v12c-5.4-.9-12.9.7-11.8,7.7s6.4,5.3,10.7,5.8c18.2,2.2,47-1.8,59.5,13.1,1.7,2.1,5.3,9.3,6,9.7,1.6,1.1,6,1.2,8,2.5,1.9.1,2.7-4.6,3.2-6.3,6.4-23-.4-49.3-15.7-67.3-1.6-1.8-9.6-10.4-11.5-10-11.7,11.8-27.5,19.8-44.2,20.9-27.5,1.8-60.1-8.8-76.6,20s-6,27.7.6,42.1c8-.9,5.7-3.5,7.8-9,3.6-9,8.6-13.2,17.1-17.4,5.6-2.7,18.4-6.5,22.5-9.7s2.6-4.9,4.2-7c4.8-6.4,12.7-7.7,20.2-7.1ZM166.2,76.3c-10.3,5.2-29.3,8.4-31.8,21.7,2.2,26.2-12.6,80.3,27,83.9,13.5,1.2,39.6,1.2,53.1,0,13.9-1.2,25.8-12.7,27.2-26.7,1.2-11.8,1.1-35.9.1-47.8s-5.9-14.7-14.1-16.6c-14.7-3.5-34.8-.7-49.6-4.3s-10.6-5.1-11.9-10.1ZM122.1,111.5c-15.9,5-15.9,27.9,0,32.9v-32.9ZM253.8,144.4c15.9-5,15.9-27.9,0-32.9v32.9ZM174.9,193.9c-3.4,6.7-6.7,11.9-.5,18.3s19.4,7.4,26.6.4,3.4-11.7-.1-18.6h-26ZM160.2,211.8l-7.4.7c8,38.5,61.8,38.7,70.4.4l-7.5-1.1c-10.6,23.8-44.9,23.9-55.5,0ZM86.1,271.7h24v-24h12v39.3c0,.4,2,4.9,2.5,5.7,8.5,14.1,28.8,7.5,42.6,8.7,12.1-14.7,34.3-16.7,45.6,0l.9.2c12.3-1.3,27.6,4.1,36.3-7.2s3.8-6.2,3.8-7.5v-39.3h12v24h24c-2-29.1-25-55.3-54.5-57.5-10.2,52.2-84,52.6-94.3.3-1.7-2.6-18.8,4.3-21.8,5.9-18.9,10-31.3,30-32.9,51.3ZM110.1,283.7h-23.2c3.6,29.4,28.5,52.1,58,53.9,12.7.8,34,1.1,46.5,0,21.5-1.9,19-37.8-2.3-36-8.2.7-11.1,8.3-17.2,12-10.9-.6-22.9.9-33.7,0-15.8-1.2-28-14.1-28-30ZM289,283.7h-23.2c0,12.6-8.5,24.6-20.5,28.5s-18.4.9-27.4,1.5v13.1c0,2.5-3.4,8.3-4.5,10.9h20.6c3.6,0,13-2.9,16.6-4.4,20.4-8.1,35.8-27.6,38.4-49.5ZM253.8,345l-21.3,4.5c-29-1.4-59.6,1.8-88.4,0-7.6-.5-14.8-2.6-22-4.5v16.5h131.7v-16.5Z"></path><polygon class="st0" points="64.4 241.8 59.9 253 39.5 243.4 27.4 255 0 241.3 4.6 230.5 25 240.1 37.1 228.5 64.4 241.8"></polygon><polygon class="st0" points="371.3 230.5 375.8 241.7 348.5 255 336.4 243.4 316 253 311.5 241.8 338.8 228.5 350.9 240.1 371.3 230.5"></polygon><polygon class="st0" points="64.4 277.7 59.9 288.9 39.5 279.3 27.4 290.9 0 277.2 4.6 266.4 25 276.1 37.1 264.4 64.4 277.7"></polygon><polygon class="st0" points="371.3 266.4 375.8 277.6 348.5 290.9 336.4 279.3 316 288.9 311.5 277.7 338.8 264.4 350.9 276.1 371.3 266.4"></polygon><polygon class="st0" points="64.4 313.7 59.9 324.8 39.5 315.2 27.4 326.9 0 313.2 4.6 302.4 25 312 37.1 300.3 64.4 313.7"></polygon><polygon class="st0" points="371.3 302.4 375.8 313.5 348.5 326.9 336.4 315.2 316 324.8 311.5 313.7 338.8 300.3 350.9 312 371.3 302.4"></polygon><path class="st0" d="M217.1,168.3l-10.7,3.1c-6.6-18-30.3-18-36.9,0-1.1.2-8.5-2.2-9.8-2.8-2.4-1.2.3-5.1,1.2-6.7,11.5-21.2,42.6-21.3,54.1,0,.7,1.4,2.9,5.1,2.1,6.4Z"></path><path class="st0" d="M219.9,99.6c1.8-.2,5.9,7.4,6.9,9.2l-11.2,8.3,12,12.7-7.9,7.9-22.8-22.8,23-15.3Z"></path><polygon class="st0" points="155.5 99.6 179 114.9 156.8 137.6 148.3 129.7 160.2 117.1 149.1 108.8 155.5 99.6"></polygon></svg>