<svg xmlns="http://www.w3.org/2000/svg" id="Capa_1" viewBox="0 0 375.8 373.5"><defs><style>      .st0 {        fill: #007acc;      }    </style></defs><path class="st0" d="M35.3,305.2c3.2-28.7,27.9-46.2,52-57.4s22.9-10,24.7-10,10.2,5.5,10.5,6c.9,1.5-5.1,9.5-6.2,11.8-2,4.1-3.9,9.6-5.5,14s-1.3,6.6-2.1,8.1-11.4,3.9-14.3,5.2c-22.4,10-27.5,30.8-25.1,53.7s1.6,5.9,5.9,6.8c5.6,1.2,22.1,1.6,25.9-3,7.9-9.6-6.2-16-14.8-13.5-3.6-26.9,23-41.1,45.5-28.1,10.6,6.1,13.6,16.5,11.2,28.1-3.1.4-6.6-.4-9.7,0-9.6,1.5-10.4,15.8,1.6,16.9,4.2.4,22.1.8,24.1-2.2,2.6-3.8.4-27.2-1-32.7-3.9-15.6-17.9-26.7-32.9-30.9-.7-3.6,8.3-26,11.6-26.5l51.6,29.6,58.8-33.8c.7-.2,1.3,0,1.9.3,2.5,1.3,9.7,17.2,10.8,20.6s4.8,17.1,3.2,19.7-5.7,3.3-7.2,4.6c-20,17.4-1.7,50.8,24.4,43.1,23.1-6.8,24.1-41.4.2-47.8-.7-8.4-2-17.5-4.6-25.5-2.6-8-7.6-14.9-10.8-22.7,1.4-.2,2.7.2,4.1.6,25.9,7.2,71.4,34.2,71.4,65.1v68.3H35.3v-68.3Z"></path><path class="st0" d="M277.8,97.9c-1.8,37.8-13.6,80.2-43.7,105.1-1.6,1.3-10.3,6.6-10.5,7.4-1.6,5.4,13.2,15,17.2,17.4,1.6,1,6.9,2.2,5.3,4.1l-58.4,32.9-57.4-35c5.2-1.8,23.1-13.1,21.1-19.4s-10.7-7.8-12.6-9.5c-19.7-17.1-31.6-44.7-37-69.8-1.2-5.7-5.6-27.3-2.9-31.2,21.3-15.8,39.3-28.9,67.5-26.6s32.2,11.8,48.8,17.3c19.8,6.6,41.9,7,62.7,7.2Z"></path><path class="st0" d="M276.9,80.1c-22.8.3-45.9-1.2-67.4-9.3-7.9-3-15.1-7.4-23.3-9.8-24.2-7-45.7-4.4-67.6,7.9-4.8,2.7-15.4,11.6-19.4,12.9s-1.3-3.4-1.3-4.7c1.6-33.9,27.9-64.3,60.1-73.1,56.6-15.4,116.1,13.7,118.9,76.1Z"></path></svg>