<svg xmlns="http://www.w3.org/2000/svg" id="Capa_1" viewBox="0 0 375.8 373.5"><defs><style>      .st0 {        fill: #fff;      }    </style></defs><path class="st0" d="M41,37.7c8.7-1.6,42-1.5,51.1-.2s11,5,13.9,10.5l1.4,162c50.9,46.1,9.5,130.5-58.5,111.5C-.2,307.9-10.2,242.7,27,210V53.9c.3-7.5,6.7-14.8,14-16.1ZM38.5,117.6v99.6c-47.5,34.4-14.7,108.3,43,93.1,30.8-8.1,46.2-45.1,31.8-73.3-4.5-8.8-12.7-13-17.4-21.3l-.7-164c-1.3-2.4-3.2-2.6-5.7-2.9-5-.7-45.6-.4-48.1.8-3.7,1.8-2.9,7.3-2.9,10.8,6.3.9,23.9-3.5,23,6.4-.7,9.3-21.1,3.2-23,5.1v11.5h30.8c1,0,4.4,4.5,3.7,6.4,0,1.5-2.9,5.1-3.7,5.1h-30.8v11.5c1.9,1.9,22.3-4.2,23,5.1.9,9.9-16.7,5.5-23,6.4Z"></path><path class="st0" d="M185.3,226.5c-23.7-3.9-20.7-31.1-21.5-48.7l-17.7-12.5c-2-7,16.4-21.3,18.2-27.2s.9-28.4.4-32.7-10.5-12.6-14.4-18.5c-7.5-11.2-12.9-29.8-14.1-43.2s-2-21.4,3-23.8,7.6,5.1,14.1,8.1c19.5,8.9,67.3-14.7,74.1-10.4l1,8.4c-25.2,8.6-54.3,20.3-81,12.9,2.1,20.2,8,45.9,27.7,56.1,4.3,2.2,17.1,4.9,18,7.9,3.4,11.4-10.9,6.9-17.1,6.2v32.2l-15.7,20.1,15,10.7c3,10.3-3.1,30.6,4.4,38.6.8.9,6.7,4.4,7.1,4.4h48.7c1.1,0,3.2,3.5,3.5,5.1.8,4.2.7,25.7,0,30s-8.3,9.6-10,15.1c9.3.3,18.6-2.3,27.5-4.7,9.7-2.6,23.5-9.7,32.1-10.9s9.5,1.2,7.6,7.5c-2.1,7-66.6,23.1-77,21.2-11,20.4-20.2,40.9-24.2,64-1,5.5-1.4,24.2-3.9,26.2-9.8,8-9.7-9.8-9.4-15.2,1.4-25.7,15-60.1,28.4-82,2.4-3.9,17.5-22.6,17.5-24.1v-20.8c-12.8-1.5-30,2-42.3,0Z"></path><path class="st0" d="M280.3,3.4c13.8-1.3,30-.7,41.8,7.5s8.6,10.5,11.7,12.7c5.7,4.1,14,4,21.4,11.6,33.3,34.2,7.9,109.5-12.1,145.5-4.3,7.7-23,32.7-23.7,37.9-3.5,25.7,5,27.4,15.5,46.2,14,24.8,23.1,52.7,24.6,81.4s2.3,23-5.1,23.7l-6.1-3.9c.2-33.2-5.6-62.6-21.5-91.7-3.6-6.6-17.3-24.2-18.5-28.8-2-7.5,1-18.7-.6-26.7-9.2-6.9-22.8-12.6-28.5-23.1-3-5.6.3-10.8,6.2-9.2s16.8,20,25.9,19.6c29.9-35.4,61.1-104.3,43.2-150.2-2.4-6.2-8-14.4-14-17.5-4.4-2.2-9.9-1.8-13.3-3.9s-5.5-8.7-8.5-11.6c-8.6-8.6-24.3-9.2-35.9-8.5s-20.9,7-20.9-3.6c0-6.6,12.7-6.9,18.5-7.5Z"></path><path class="st0" d="M244.8,311.8c4-30,41.9-43.6,65.2-25,5.9,4.7,15.1,17.6,15.1,25v54.5c0,.7-3.6,3.7-5.1,3.7-1.8.8-6.4-2.6-6.4-3.7v-53c0-12.2-16.4-23.5-28-23.8-12.2-.2-29.4,10.9-29.4,23.8v53c0,.7-3.6,3.7-5.1,3.7-1.8.8-6.4-2.6-6.4-3.7,0-16-2-39.6,0-54.5Z"></path><path class="st0" d="M220,77.7c4.6-1.3,5.8,1.5,7.9,4.5,5.1,7.6,17.1,33.2,17,41.8,0,18.4-21.7,28.5-36.7,17.9-12-8.5-10.1-20.8-5.7-32.9,1.7-4.7,14.2-30.4,17.5-31.4ZM223.3,96.1c-3.7-.7-2.2.5-3,2-4.7,9.1-19,35.9.9,36.8s5.1-28.6,2.1-38.8Z"></path><path class="st0" d="M275.9,112.2c29.3-6,34.1,41.7,14.6,56.2-6.6,4.9-23.3,10.3-22.7-2.5,1.4-4.5,13.1-3.2,17.7-8.2,7.6-8.4,7.4-38.3-6.8-34.1-7.6,2.2-2.4,17.7-12.9,15.3-9.4-2.6-1.4-24.3,10.1-26.7Z"></path><path class="st0" d="M243,8.9c7.9-2.2,10.5,9.2,3.7,11.1-7.9,2.2-10.5-9.2-3.7-11.1Z"></path><path class="st0" d="M13.7,318.5c7.9-2.2,10.5,9.2,3.7,11.1s-10.5-9.2-3.7-11.1Z"></path><path class="st0" d="M116.9,318.5c7.9-2.2,10.5,9.2,3.7,11.1-7.9,2.2-10.5-9.2-3.7-11.1Z"></path><path class="st0" d="M36.6,329.9c7.9-2.2,10.5,9.2,3.7,11.1-7.9,2.2-10.5-9.2-3.7-11.1Z"></path><path class="st0" d="M93.9,329.9c7.9-2.2,10.5,9.2,3.7,11.1-7.9,2.2-10.5-9.2-3.7-11.1Z"></path><path class="st0" d="M65.3,335.6c7.9-2.2,10.5,9.2,3.7,11.1s-10.5-9.2-3.7-11.1Z"></path><path class="st0" d="M84.3,225.1c38.6,16.8,25,75.9-16.5,76-43,.1-57-58.2-17.9-76v-92.4c0-2.6,5.7-3.5,7.8-3.7,4.3-.4,26.6-1.1,26.6,3.7v92.4ZM72.9,140.6h-11.5v89.6c0,3.9-7.3,4.9-10.2,7-23.7,16.2-11.9,53.1,16.7,52.6,28.1-.5,38.5-37.4,14.4-53.2-2.7-1.8-9.4-2.4-9.4-6.4v-89.6Z"></path></svg>