<svg xmlns="http://www.w3.org/2000/svg" xmlns:xlink="http://www.w3.org/1999/xlink" width="1920" height="896" viewBox="0 0 1920 896"><defs><clipPath id="clip-path"><rect id="Rect&#xE1;ngulo_59" data-name="Rect&#xE1;ngulo 59" width="1920" height="896" transform="translate(5876 -1360)" fill="#fff"></rect></clipPath><linearGradient id="linear-gradient" x1="0.5" x2="0.5" y2="1" gradientUnits="objectBoundingBox"><stop offset="0" stop-color="#fff"></stop><stop offset="1" stop-color="#0081b0"></stop></linearGradient><linearGradient id="linear-gradient-2" x1="0.016" y1="0.337" x2="1.117" y2="0.692" gradientUnits="objectBoundingBox"><stop offset="0" stop-color="#0071a3"></stop><stop offset="1" stop-color="#072a6d"></stop></linearGradient></defs><g id="fondo-contacto" transform="translate(-5876 1360)" clip-path="url(#clip-path)"><rect id="Rect&#xE1;ngulo_35" data-name="Rect&#xE1;ngulo 35" width="1988" height="927" transform="translate(5876 -1360)" opacity="0.13" fill="url(#linear-gradient)"></rect><circle id="Elipse_3" data-name="Elipse 3" cx="70.5" cy="70.5" r="70.5" transform="translate(7716 -1103)" fill="#fff" opacity="0.46"></circle><g id="Elipse_15" data-name="Elipse 15" transform="translate(7657 -1001)" fill="none" stroke="#fff" stroke-width="1" opacity="0.26"><circle cx="139.5" cy="139.5" r="139.5" stroke="none"></circle><circle cx="139.5" cy="139.5" r="139" fill="none"></circle></g><circle id="Elipse_1" data-name="Elipse 1" cx="369.5" cy="369.5" r="369.5" transform="translate(5518 -1286)" fill="#0081b0" opacity="0.02"></circle><g id="Elipse_12" data-name="Elipse 12" transform="translate(5534 -1274)" fill="none" stroke="#0081b0" stroke-width="1" opacity="0.1"><circle cx="369.5" cy="369.5" r="369.5" stroke="none"></circle><circle cx="369.5" cy="369.5" r="369" fill="none"></circle></g><circle id="Elipse_4" data-name="Elipse 4" cx="142" cy="142" r="142" transform="translate(5677 -1032)" fill="url(#linear-gradient-2)"></circle><ellipse id="Elipse_46" data-name="Elipse 46" cx="118.5" cy="118" rx="118.5" ry="118" transform="translate(7665 -1034)" opacity="0.13" fill="url(#linear-gradient-2)"></ellipse><g id="Elipse_10" data-name="Elipse 10" transform="translate(5861 -1091)" fill="none" stroke="#0081b0" stroke-width="1"><circle cx="29.5" cy="29.5" r="29.5" stroke="none"></circle><circle cx="29.5" cy="29.5" r="29" fill="none"></circle></g><g id="Elipse_45" data-name="Elipse 45" transform="translate(7785 -1093)" fill="none" stroke="#0081b0" stroke-width="1"><circle cx="49.5" cy="49.5" r="49.5" stroke="none"></circle><circle cx="49.5" cy="49.5" r="49" fill="none"></circle></g><circle id="Elipse_11" data-name="Elipse 11" cx="29.5" cy="29.5" r="29.5" transform="translate(5853 -1120)" fill="#0081b0" opacity="0.17"></circle><circle id="Elipse_44" data-name="Elipse 44" cx="49.5" cy="49.5" r="49.5" transform="translate(7771 -1142)" fill="#0081b0" opacity="0.17"></circle></g></svg>