<svg xmlns="http://www.w3.org/2000/svg" id="Capa_1" viewBox="0 0 375.8 373.5"><defs><style>      .st0 {        fill: #007acc;      }    </style></defs><path class="st0" d="M261.3,70.5c-1,1.3-1.1,3-1.3,4.6-.5,4.5-1.4,22.7-.8,26.5,1.7,11.1,17,27.5,22.4,39.7,12.9,29.2,9,56.7-2.2,85.6l79.6,79.9c24.4,29.8-13.3,69-44.3,45.4l-80.1-79.5c-2-.6-20.2,5.3-21.5,6.5-2.9,2.8.6,18.5-4.5,27.1-11.1,18.7-42,12.8-44.9-8.7-.6-4.2,1.1-16-1.1-18.1s-14.3-5.1-17.9-6.7c-55.9-25.7-75.6-96.5-41.7-148,5.3-8.1,12.7-12.6,13.6-22.8.4-5.2.8-28.2-2.2-31.1s-5.2-2-7.2-2.4c-11.1-2.4-42.9-7-53.2-5.6-6.8,1-10.2,7.3-5.5,12.8,5.9,6.9,13.9-1.2,21.6-2.1,21.6-2.6,47.3,17.1,30.4,37.9-9.4,11.5-27.7,13.4-40.6,7.5-4.8-2.2-9-7.9-13.6-8.8-11-2.2-18.6,2.6-29.7-5.6C-1.8,91,.5,61.6,11.8,44.2,39.7,1.8,93.5,30.4,135.3,25.3c6.3-.8,12.4-6.2,18.4-8.4,10.4-3.7,55.8-3.9,66.4-.6s7.7,4.4,12,6.2c40.1,16.6,96.6-26.5,130.4,19.5,12.9,17.6,16,50.5-4.8,63.3-9.7,6-13.4,3.5-23.3,4.5-17,1.7-20.5,18.8-45,10.7-34.1-11.2-18.7-51.7,16.9-46.9,5,.7,12.3,5.4,15.8,4.7,10-2,10.3-15.8-2.7-15.7s-36.6,3.1-50.2,5.6c-2.7.5-5.4,1.1-7.9,2.3ZM247.1,97v-28.4c0-1.5,3.9-7.2,5.4-8.5,6.5-5.6,13.4-3.9,20.7-5,20.8-3.3,74.5-17.9,69.1,19.8-1.4,9.9-10,11.4-12.3,15.6-4.3,7.9,10.8,6.8,15.4,5.7,22.6-5.4,14.5-40.1,1.3-52.3-26.8-24.6-80.1,4.9-115.6-7.5s-8-4.9-11.8-6.4c-10.5-4.2-50.5-4.1-61.3-.3s-10.4,5.9-16,7.6c-9.4,2.8-26.6,2.4-36.7,1.8-25.4-1.4-56.7-15.4-77.6,5.9s-19.3,46.7,3.1,51.4c2.1.4,13.1,1,13.9.4s1.4-5.9,1.3-6.6-11-5.6-12.7-15.4c-1.8-10.2,4.9-22.9,15.5-24.6s54.8,2.7,67.7,6.7,12.8,8.3,12.8,15v25.2c2.9-1.2,14.6-6.6,15.5-8.6,1.6-3.4.2-17.3.8-22.7,1.9-16,13-26.4,29.1-27.6,22.7-1.7,52.3-1.9,55.2,27.4s-1.3,19.8,1,23.4c.6.9,15.3,9,16.1,8.2ZM164,55.6c-4.2,4.2-8.7,24.1-4.7,27s19.2-2.6,23-2.8c12.2-.7,20.6,2.7,31.2,3.2s4-9.1,3.6-13.4c-.9-10.6-5.5-17.4-16.6-18.7s-30.7-1.2-36.6,4.6ZM72.4,86.6c-21.1,2.6-17.7,23.5,4,22.3,24.4-1.4,17.6-24.9-4-22.3ZM298.3,86.6c-11,1.1-22.1,11.3-9.1,19.2,7.2,4.4,11.6,4.8,19.2,1.7,19.3-7.9,5.1-22.5-10.1-20.9ZM178.4,93.1c-75.7,7.1-106.3,103-50.1,153.3,47.5,42.5,125.5,22.1,144-39.1,18.7-62-29.7-120.2-93.9-114.2ZM271.4,239.5c-1.1.3-13.6,14.5-16.2,17s-6.7,4.7-9.1,8c3.6,2.4,7.7,11.2,12.3,8.1,2.1-1.4,22.4-21.7,22.9-23.3.7-2.5-7.3-10.5-9.8-9.8ZM265.3,286.5c4.5.6,5.5,7.3,10.7,4.8s20.7-20,21.5-21.4c3.1-5.3-2.8-11.9-7.5-9.7-1.5.7-22.2,21.5-23.6,23.5s-1.5,1.1-1,2.7ZM308.9,277c-3.6,1-20.5,21.8-25.3,25l40.7,40.6c9.6,6.6,25.8,2,28.3-10,2-9.5-1.3-14.2-7-21-9.8-11.7-23.6-22-33.7-33.8-.9-.9-1.8-1.2-3-.9ZM176.5,281.1c.4,5.6-1.1,12.2,1.3,17.4,4.1,8.7,17.9,7.7,20.7-1.3.3-.9,1.7-12.8,1.6-13.5s-1-2.7-1.6-2.7h-21.9Z"></path><path class="st0" d="M177.3,103.7c80.4-9.1,120.8,92.8,56.9,139.3-60.8,44.2-142.4-13.9-120.5-85.2,8.4-27.4,35-50.8,63.7-54.1ZM180.5,116.6c-50,5.1-74.3,64.4-43.6,104,30.7,39.7,96.3,29.5,112.1-18.5,15-45.9-20.4-90.4-68.4-85.5Z"></path><path class="st0" d="M206.4,162.3h18.7c.6,0,3.2,2,3.6,2.8,1.6,2.5,1.9,25.1,1.2,28.8-.3,1.4-3,4.8-3.7,4.8h-18.2c-.1,0-1.6,1.5-1.6,1.6v17.1c0,1.4-3,4.4-4.8,4.8-3.8.8-22.6.6-26.8,0-9.5-1.3-2.5-18.1-5.7-22.1-3.3-4.2-18.3,1.6-22-3.7-2.5-3.6-2.2-24.1-1.1-28.9,2.1-9.2,16-3.8,22.9-5.5,1.9-4-1.1-20.7,3.6-22.7s28.4-1.3,31.2.5,2.8,3.1,2.8,3.6v18.7ZM217.1,185.9c4.5-19.3-16-5.6-22-12.8-6.1-7.2,6.8-25.6-12.2-21.5v16.6c0,1.9-2.6,7-4.8,7h-18.7c-.6,0-2.4,10.7.5,10.7h17.1c.4,0,3.3,2,3.8,2.6,5.1,6.4-2.1,21.6,6.9,22,12.1.5-.3-24.7,11.8-24.7h17.7Z"></path></svg>