<svg xmlns="http://www.w3.org/2000/svg" id="Capa_1" viewBox="0 0 375.8 373.5"><defs><style>      .st0 {        fill: #0178c6;      }      .st1 {        fill: #f0f6fa;      }    </style></defs><path class="st0" d="M233,40c1.8,1.8.7,8.4,1.1,11.3,2.1,15.2,7.6,30.2,20.4,39.4,4.9,3.6,10.6,5.8,15.6,9,17.3,11.3,34.4,24.8,47.9,40.5,13.2,15.3,22.8,32.6,33.4,49.4,14.1,22.4,22.4,37.7,20.4,65.6-.2,3.3-3.6,20.8-5.2,22.7s-3.3.3-4.3.9-3.1,7.5-4,9.2c-18,32.5-51.6,50.1-88.8,45.6s-8.7-2.7-12.1-2.4-1.1,2.3-3.8,2.2c-4.4-.2-18.2-8.2-22.3-11.1-75.3-51.1-36.6-169.1,55.6-164.7,17.1.8,33.1,7.2,47.3,16.4-13.7-24.5-34.8-46.3-57.8-62.4-19.9-13.9-36.8-17.3-44.9-43.5s-5.1-23.4-3.8-27,3.9-2.5,5.2-1.1ZM316.7,254c2.9,4.1,4.8,9.1,7.6,13.5,3.3,5,7.7,9.4,11.4,14s7.5,11.3,9.2,11.6c8.2,1.4.1-9.4-1.7-11.9-7.4-10.1-15.7-16.6-20-29.3s0-11.6.6-20.5c.9-12.5-2.4-26.9-8.2-38s-2.9-5.8-3.7-6.6c-2.8-2.9-6.5-1.1-5.5,3s6.2,11.2,7.8,16.1c21.6,65.3-66.7,107.3-98.1,52.7-1.6-2.8-6.6-16-7.4-16.5-2.5-1.9-5.1-1.1-5.2,2.1,0,5.3,8.2,19.7,11.6,24.2,14.5,19,38,25.7,60.8,19.2l7.2,37.8c1.9,2.8,5.7.9,5.5-2.3l-7.2-37.8c14.7-5.1,28.8-16.7,35-31.1Z"></path><path class="st0" d="M140,39.8v13.9c0,.9-2.4,9.8-2.9,11.4-10.6,32.9-40.2,37-64.3,56.7-39.9,32.7-41.8,60.9-57.4,105.8-.9,2.5-5.4,14.9-6.7,15.6-2.5,1.3-4.9-.6-4.9-3.2,10.4-25.9,14.5-53.4,27.6-78.3,12.1-22.9,33.7-44.5,55.6-58.2,21.9-13.7,39.6-17.1,45.6-46.8s-.3-20.6,7.4-16.9Z"></path><path class="st0" d="M110.6,283.5l-8,45.6c-2,2.4-4.2.8-5.4-1.6l7.1-45.1c-31.4-13.6-44.5-46.7-31.5-78.5s5.8-11.8,6.5-12c2.3-.6,5.2.8,4.9,3.5s-5.4,10.3-6.3,12.7c-22.4,60.6,59.3,98.6,87.1,48.8,1.9-3.5,5.2-16.2,8.9-15.5s.2,10.6-.9,13.2c-10.7,24.3-36.4,37.5-62.2,28.9Z"></path><path class="st1" d="M316.7,254c-6.2,14.4-20.3,26-35,31.1l7.2,37.8c.2,3.1-3.7,5.1-5.5,2.3l-7.2-37.8c-22.9,6.5-46.4-.2-60.8-19.2-3.4-4.5-11.6-18.9-11.6-24.2s2.7-4,5.2-2.1,5.7,13.7,7.4,16.5c31.4,54.6,119.7,12.6,98.1-52.7-1.6-4.9-7.1-12.8-7.8-16.1s2.6-5.9,5.5-3,2.9,5.2,3.7,6.6c5.8,11.1,9.1,25.5,8.2,38-.6,8.9-3.9,10.9-.6,20.5s12.7,19.2,20,29.3,9.9,13.3,1.7,11.9c-1.7-.3-7.4-9.4-9.2-11.6-3.8-4.7-8.1-9-11.4-14-2.9-4.3-4.7-9.4-7.6-13.5Z"></path></svg>