<svg xmlns="http://www.w3.org/2000/svg" id="Capa_1" viewBox="0 0 375.8 373.5"><defs><style>      .st0 {        fill: #0077c4;      }    </style></defs><path class="st0" d="M113.4,204.1c3.5-31.4,27.7-36.1,43-55.5s7.6-14.5,6.1-19.7-4.6-4.6-6.1-6.6c-3.3-4.2-6.1-8.6-8.9-13.1-6.5,42.5-33.9,74.6-79.9,56.8-3.4-1.3-16.1-7-18.5-8.7s-2.6-1.8-1.7-3,8.3-3.5,10.4-4.8c19.1-11.8,19.7-30.8,27.9-49.7s25.5-34.7,52.9-26.2c-3.3-41,36.2-87.7,78.3-62.1,41,25,39.6,101.7-4.8,123,2.7,17.3,20.7,25.2,31.9,36.5,14.6,14.7,21.4,31.6,18.3,52.4,69.9,4.2,91.4,100.8,31.8,136.1-5.3,3.1-20.4,9.6-26,9.6H113.4v-165.1ZM191.8,21.5c-40.3,1.1-48.7,75.7-14.8,96,31.2,18.7,53.6-20.2,52.8-47.6-.6-20.2-14.6-49-38-48.4ZM83.5,153.3c2.8.8,12.9,0,16.8,0s8.6-3.9,9.9-4.8c16.5-11.5,20.9-39.8,21.1-58.5-28-11.3-31.8,26.1-39.7,44s-9.4,15.7-9.5,16.7.8,2.3,1.5,2.5ZM130.1,208.3v144.1h133.7c1.5,0,10.2-2.6,12.3-3.4,42.9-15.3,47.8-78.1,9.1-100.8-13.4-7.9-26.8-7.6-41.8-9.1-.4-10.1,2.9-19.6,2.1-29.9-2.5-30.6-45.8-39.1-49.3-69.6l-16.8-1.7c-4,33.4-45.5,37.3-49.2,70.3Z"></path></svg>