<svg xmlns="http://www.w3.org/2000/svg" id="Capa_1" viewBox="0 0 375.8 373.5"><defs><style>      .st0 {        fill: #fff;      }    </style></defs><path class="st0" d="M237.4.3l86.3-.3c5.2.8,9.2,4.4,10.6,9.4l.4,350.1c.3,6.6-3.3,11.9-9.6,13.7l-86.3.3c-5.2-.8-9.2-4.4-10.6-9.4l-.4-350.1c-.3-6.6,3.3-11.9,9.6-13.7ZM321.3,13.2h-80.1v18.4s11.4.2,11.4.2c2,3.6,2.6,8.5-.9,11.6l-10.6,1.5v15c11.6.7,31.4-4.8,25,13.3h-25v16.7c18.1-1.8,18.1,15.8,0,13.3v16.7c7.3,1,27.8-4.1,26.8,7.4-.8,10.8-24.6,3.7-26.8,5.9v16.7c18.1-2.7,18.1,16.1,0,13.3v16.7c7.3,1,27.8-4.1,26.8,7.4-.8,10.8-24.6,3.7-26.8,5.9v16.7c18.1-2.8,18.1,16.1,0,13.3v16.7c36.4-4.8,35.9,17.8,0,13.3v16.7c18.1-2.4,18.1,15.1,0,13.3v16.7s25,0,25,0c6.4,18.1-13.4,12.6-25,13.3v15c10-.9,16.2,2.9,11.4,13.1l-11.4.2v18.4h80.1V13.2Z"></path><path class="st0" d="M112.4,158.8c96.8-13.1,140.4,110,62,158.7-66.9,41.6-148.8-17.6-130.8-94.1,7.2-30.6,37.2-60.3,68.8-64.6ZM120.9,171.9c-64.7,5.3-90.5,87.2-39.9,129.1,49.8,41.2,124,2.4,120.2-61.8-2-34.5-31.8-65.8-66.8-67.5,2.6,12.7,6.2,9.8,13.8,13.7s3,12.5-4.6,12.8c-13.1.4-21-15-22.8-26.3Z"></path><path class="st0" d="M170.7,270.6c7.1,7-9.4,17.5-14.7,20.3-13.8,7.2-28.3,8.9-43.3,5.2-7.3-1.8-37.6-16-27.9-25.5,6.4-6.2,17.5,7.5,24.6,10.4,11.5,4.7,25.2,4.7,36.7,0s18.2-16.6,24.6-10.4Z"></path><path class="st0" d="M105.9,218.7c2.1,5.6,4.5,15.6-1.9,18.6-11.7,3.1-10.9-9.6-8.1-17.9l10-.7Z"></path><path class="st0" d="M159.3,218.7c2.1,5.6,4.5,15.6-1.9,18.6-11.7,3.1-10.9-9.6-8.1-17.9l10-.7Z"></path></svg>