<svg xmlns="http://www.w3.org/2000/svg" id="Capa_1" viewBox="0 0 375.8 373.5"><defs><style>      .st0 {        fill: #fff;      }    </style></defs><path class="st0" d="M338.4,296.4c-8.6-.8-18.9,3.6-22.1,14.9l-30.9-.8-83.9-82.5-1.4,1.1c-15.8,12.1-35.4,23.7-60.9,17.7-34.5-8.2-46.8-37.4-46.8-59.8s12.3-51.6,46.8-59.8c25.5-6.1,45.1,5.5,60.9,17.7l1.4,1.1,83.9-82.5,30.9-.8c3.7,12.1,14.6,16.2,23.5,14.7,8.8-1.4,17.8-9,16.6-22-.7-8.1-5.8-14.3-13.5-16.7-8.2-2.6-17.2,0-22.8,6.7-1.2,1.4-2.1,3.7-2.8,5.4,0,.1,0,.2-.1.3l-35.4.5-26.3,25.6c-11-9.9-19.9-17.4-35.9-7-2.4,1.6-4.8,3.8-7.3,6.3-7.5,7.3-13,11.7-19.5,7.6-2.8-1.8-3.2-8.1-3.6-14.8-.5-9.5-1.2-20.2-8.5-26.3-8.8-7.3-45.1-7.8-54.7-.7-7.9,5.9-8.7,17.2-9.4,27.1-.5,7.5-1,14.7-4.8,15.8-6.8,2.1-12.6-3.1-18.7-8.7-4.9-4.5-10-9.1-16.1-10.1-17.3-3-35.2,19.8-38.6,24.4-13.9,18.7-3.6,28.9,4.6,37.1,4.6,4.5,8.9,8.8,9.1,13.9.3,7.7-6.3,8.6-17.8,9.6-12.4,1.1-27.8,2.4-29.9,19.8-.8,6.8-.9,25.8.2,33.1,2.5,17.5,18.5,18.6,31.4,19.6,7.9.6,14.7,1.1,15.8,4.9,2.1,7-3.2,12.7-8.9,18.7-4.3,4.5-8.7,9.1-9.8,14.6-.8,3.8-.8,8.7,0,12.1,1.7,7.2,22.7,27.8,29,31.3,14.8,8.1,25-1.1,33.3-8.5,6.1-5.5,11.4-10.3,17.3-7.6,4,1.8,4.5,9,5.1,16.6.7,9.7,1.5,20.6,9.5,26.2,4.4,3.1,15.3,4.6,26.2,4.6s21.8-1.5,26.5-4.6c9.2-6.1,9.6-16.7,10-26.1.3-7.5.6-14.1,5-16.8,5.4-3.4,11.1,1.2,19,8.5,5,4.6,9.7,8.9,14.6,9.9,11.8,2.4,18.9-3.8,26.4-10.4.1,0,.2-.2.3-.3l26.3,25.7,34.6.2c4.5,11.3,15.4,14.9,24,13.4,7.7-1.4,16.6-7.6,16.2-20.6-.4-12-9.4-18.2-18.1-19ZM343.7,321.5c-1.9,2.8-5.4,3.8-10,2.8-4.3-.9-5.8-4.6-5.8-7.7,0-3.5,1.8-7.7,5.8-8.6,4.2-1,7.7.2,9.7,3.2,2.1,3.1,2.2,7.4.3,10.3ZM52.9,253.1c6.9-7.7,14.7-16.4,9.4-29.5-4-9.9-15.5-10.7-25.7-11.5-8.5-.6-16.4-1.2-19.1-6.4-2.7-5.2-2.6-35.2,1-39.2,2.7-3.1,9.3-3.5,16.3-3.9,10.8-.7,24.2-1.5,28-13.8,3.8-12.1-3.8-20.4-10.6-27.7-5.8-6.4-10.9-11.9-7.8-18.6,2.5-5.5,19.7-22.9,25.1-24.6,5.9-1.9,11.3,2.9,17.5,8.4,8.1,7.2,17.3,15.3,30,9,10-4.9,10.7-16.1,11.3-26,.5-8.2,1-15.9,6.5-18.7,4.1-2.1,26.7-2.3,32.7-1.4,8.3,1.3,9.4,8.6,10.3,20.5.8,10.8,1.7,23,14.1,26.3,12.3,3.3,20.1-3.8,27-10.1,6.1-5.5,11.4-10.3,19-7.9,1.1.6,7.8,5.1,9.2,6.3.2.6-.3,1.8-1,2.5l-45.1,44.5h-.8c-24.7-20.4-58.1-22.7-85.1-6-27.2,16.8-39.8,48.1-32.2,79.7,4.7,19.5,17.2,35.6,35.2,45.4,18.6,10.1,40.6,11.9,60.5,4.9,5-1.7,9.2-4.5,13.4-7.1,3.2-2,6.2-3.9,9.3-5.3l44.8,44.2h.2c.5.5.5.8.5,1.1-.3,2.3-5.4,6.2-7.9,7.3-6.7,3-12.5-2.1-19.1-8-7.9-7-16.9-15-29.2-9-10.6,5.2-11.2,16.8-11.8,27-.5,8.6-.9,16-6.7,18.3-5.8,2.3-34.5,1.7-38.5-1.5-3-2.4-3.5-9-4-16-.9-12.4-2.2-29.3-20.8-29.3s-1.2,0-1.8,0c-7.4.4-12.9,5.6-18.1,10.5-6.2,5.9-11.6,11-19.5,8.6-3.3-1-21.6-18.9-23.6-23.1-3.6-7.5,1.5-13.2,7.4-19.8ZM332.7,65.3c-3.4-1.1-5-5.2-4.8-8.7,0-1.4.7-6.2,5.8-7.3,4.7-1,8.3,0,10.1,2.9,1.9,3.1,1.6,7.7-.9,10.7-2.3,2.9-6,3.8-10.3,2.3Z"></path><path class="st0" d="M340,105.7c-2.8,2-4.1,4.4-5.3,6.5-.8,1.5-1.6,2.9-2.8,4l-49.6,1-40.9,40.8h-111.8l-3.9,6.4,8.8,5.1,109.6-.4,44.9-41.3,42.4.2c2.9,4.8,8.5,12.2,16.5,14.2,4.8,1.2,9.6.2,14.3-2.8,6.6-4.3,10.1-10.9,9.6-18.2-.5-7.6-5.1-14.6-11.9-17.9-6.4-3.1-13.5-2.2-20,2.3ZM357.6,115.8c2.3,2.7,3,7,1.7,10.3-.7,1.9-2.4,4.3-6.3,5-5.7.9-8.9-3.1-9.7-7.5-.7-4.3,1-9.4,6.5-10.4,4-.7,6.4,1,7.7,2.6Z"></path><path class="st0" d="M362.2,234.2c-4.7-3-9.5-4-14.3-2.8-8,2-13.6,9.3-16.5,14.2l-42.4.2-44.9-41.3-109.6-.4-8.8,5.1,3.9,6.4h111.8l40.9,40.8,49.6,1c1.2,1.1,1.9,2.5,2.8,4s2.5,4.5,5.3,6.5c3.9,2.8,8.1,4.2,12.2,4.2s5.3-.6,7.9-1.8c6.7-3.2,11.4-10.2,11.9-17.9.5-7.3-3-13.9-9.6-18.2ZM343.2,252.1c-.3-4,1.6-8.9,8-9.5h0c3.7-.3,5.8,1.5,6.9,3.1,2,2.9,2.3,7.2.7,10.4-.9,1.9-2.9,4.2-7,4.5-5.3.3-8.4-4-8.7-8.6Z"></path><path class="st0" d="M312,166.8c-10.1.3-13.9,6.2-16.5,10.1-1.1,1.7-2,3.1-3,3.4h-123.4s-8.2,2.1-8.2,2.1v8.3l1.1.6c2.8,1.4,5.8,1.8,8.7,2,20.6,1.5,42.5.8,63.7.1,19.3-.6,39.2-1.2,58.1-.2,1,.3,2,1.8,3.2,3.6,2.2,3.4,5.1,8,11.9,9.4,2.1.4,4,.6,5.7.6,8.6,0,13.4-4.5,15.7-7.5,4.8-6.3,5.5-15.3,1.9-22.4-3.5-6.7-10.3-10.4-18.8-10.2ZM317.6,194.3c-3.7,1.7-6.9,1.5-9.5-.4-2.7-2.1-4.1-5.9-3.5-9.4.5-2.9,2.5-5,5.4-5.9,1.2-.4,2.3-.5,3.3-.5,4.9,0,6.9,4,7.5,5.4,1.5,3.9.7,9-3.2,10.8Z"></path></svg>