<svg xmlns="http://www.w3.org/2000/svg" id="Capa_1" viewBox="0 0 375.8 373.5"><defs><style>      .st0 {        fill: #fff;      }    </style></defs><path class="st0" d="M152.7,196.5l.7,11.7c4.3-2.1,12.5-18.9,10.4-21.9-13-4.7-23.8-12.5-31.2-24.3s-4.5-11.4-5-11.8c-1-1-7.4-1.5-9.9-2.6-13.4-5.9-19.7-18.6-17.2-33.2.9-5.3,4.8-9.3,5.5-14.9,3.9-31.3-10.3-55.4,20.5-78.7,34.9-26.4,134.7-25.6,151.9,22.9s.4,38.1,2.6,55.8,4.6,9.6,5.5,14.9c2.5,14.5-3.8,27.3-17.2,33.2s-8.9,1.6-9.9,2.6-3.2,9.1-5,11.8c-7.5,11.7-18.3,19.6-31.2,24.3.8,16.6,15.5,31.2,32,32.2,12.8-26.5,17.7-81.1,58.5-75.8,9.6,5.2,36.7,9.3,41.4,18.4s7.6,40.1,8.9,50.9c3.9,33.2,10.9,97-5,126-5.4,9.8-16.6,19.7-28,21.6-26.7,4.6-47.5-22-61.7-40.5v46.7H6.7v-86.8c0-8.9,8.8-23.8,16-29.2l-10.2-.7v-52.5h140.1ZM269.4,92.9v-40.1c0-2-6.2-13.1-8-15.4-23.4-29.5-113.7-29.7-136.5.8-1.5,2-7.3,13.1-7.3,14.6v40.1c10.8.2,3.1-15.3,7.5-23.9,7.8-15.3,34.6-14.1,48.3-7.8,9.3,4.3,16.4,7.8,4.6,15.4-12.8-7.5-33.5-15.5-42.8,1,2.3,30.9-10,74.1,22.3,92.9,22.3,13,64.7,12,82.7-8.3,3.5-3.9,11.7-20.2,11.7-24.8v-63.5h11.7s1.4,18.3,1.4,18.3l4.5.6ZM123.5,104.6c-15.8,3-15.9,29.1,0,32.1v-32.1ZM263.6,136.7c15.8-3,15.9-29.1,0-32.1v32.1ZM319,155.7c-10.1-2.3-18.7-3.1-26.3,5.1-1.3,1.4-8.3,12.4-8.5,13.4-.4,2.2,4,7.2,4.9,10.6,1.4,5.1.8,21.5,6,23.2s16.5-.5,20.9-4.9c-9.2-12.7-24.1-29.1-.3-36l3.2-11.4ZM345,166.2c-1.3-1.8-15.6-7.8-17.2.5-.7,3.8.4,8.4,0,12.4h-13.1s19,29.8,19,29.8l-17.6,94.2-11-2.9c-1.1-1.5,2-11.2,2.1-14.1s1.2-4-2-3.5l-29.7,22.6c11.7,22.1,46.5,63.4,70.4,31.3,18.9-25.4,9.3-102.8,5-134.7-.6-4.8-4.9-34.2-5.9-35.6ZM176.9,189.3c-2.5.8-6.3,21.6-12.5,24,9.9,14,34.8,15.8,49.1,8.3,13-6.8,5.3-11.4,1.2-20.8s-1.6-7.6-3.6-11.1l-34.2-.5ZM320.5,215.5c-14,5.1-32.7,9.5-39.7-7.7l-4-17.1c-3,19.3-10.5,36.8-21.9,52.5,11.1-.7,24.9,2.2,33.4,9.6s6,8.6,10.4,11.5,11.5,6.4,13,0c3.8-16,4.9-32.8,8.8-48.8ZM141,208.2H24.2v29.2h116.7v-29.2ZM152.7,223.5v25.5c-3.4.9-11.2-1.9-13.1,1.4,7.6,1.5,19,22.3,19,28.5v75.2h99.2v-87.6h11.7v27.7l24.8-18.2c-11.7-8.5-13.8-19.1-30.1-21s-21.7,1.3-25-2c-7.1-7,5.7-15.3,8.5-20.8s2.4-1.1,0-2.9l-15.3-6.6c-18.2,17.5-52.8,20.7-72.3,3.7-1.5-1.3-5.3-9.8-7.2-3ZM133.7,260.7c-1.8-3.8-6.9-6-10.7-7.6-14.6-6.2-70.8-6.6-85.2,0s-7.4,3.8-9.2,7.6h105.1ZM53.4,272.4H19.9l-1.5,58.4h35c-15.6-16.7-15.5-41.7,0-58.4ZM77.9,272.8c-36.3,4.8-30.1,62.2,8.2,57.9,37.3-4.2,32.6-63.3-8.2-57.9ZM143.9,272.4h-32.1c15.7,17,15.3,41.3,0,58.4h35v-50.3c0-1.2-3.4-5.6-2.9-8ZM146.8,342.4H18.4v11.7h128.4v-11.7Z"></path><path class="st0" d="M59.3,38.9c-1.3,11,.2,13.4,10.7,15.8l9-8.5,8,8c-1.7,2.6-8.8,6.9-8.5,9.9.9,9.4,7.4,11.1,15.8,9.8v11.7s-13.1,0-13.1,0l-2.8,10.7,6.9,8.7c-6.3,15.6-11.8-.7-16.3-.2l-9.7,2.7v13.1h-11.7v-13.1c0,0-10.7-2.8-10.7-2.8l-8.8,7-6.1-5.7c-1.4-1.7-.2-2.4.7-3.7,5.8-8.3,6.5-3.4,2.9-16.7h-13.1c0,0,0-11.7,0-11.7,11,1.3,13.4-.2,15.8-10.7l-8.5-9,8-8c2.6,1.7,6.9,8.8,9.9,8.5,9.4-.9,11.1-7.4,9.8-15.8h11.7ZM50.2,62.6c-21,3.4-17.4,36.8,5.3,34.6,22.6-2.1,19.1-38.6-5.3-34.6Z"></path><path class="st0" d="M306.8,69.7l8.8,6.9c4.6-1.1,7.9-2.9,12.9-2.7,9.6.3,10.8,6.8,19.2-4.2l7.2,5.7c2.1,4-5.7,6.5-6.4,9.7-.3,1.7,2.6,7.6,2.7,11.5.3,10.1-7.1,12.3,4.2,20.6l-5.7,7.2c-4,2.1-6.5-5.7-9.7-6.4s-7.6,2.6-11.5,2.7c-10.1.3-12.3-7.1-20.6,4.2l-7.2-5.7c-2.1-4,5.7-6.5,6.4-9.7s-6.5-16.7,0-23.4l-6.9-9.7,6.7-6.7ZM324.5,85.9c-12.7,2.8-11.1,24.7,5.1,22.8s12.2-26.6-5.1-22.8Z"></path><path class="st0" d="M74.9,138.5c27.6-5.7,34.4,35.1,9.6,40.2-27.6,5.7-34.4-35.1-9.6-40.2ZM77.9,150c-10.7,1.9-8.1,19.2,3.7,17.1s8.1-19.2-3.7-17.1Z"></path><path class="st0" d="M172.7,138.4c12.7-2.5,17.2,12,21.3,11.3,12.2-16.5,26.3-13.9,37.2,2-6.7,14.4-11.5.8-20.7-1.7-2.4.5-7.3,8.1-10.6,9.8-14,7.3-19.4-10.3-24.4-9.8l-13.2,8.4-6.7-7.7c.5-3,13.7-11.6,17-12.3Z"></path><path class="st0" d="M230.7,87.1l8,8-13,13.3,11.4,13.2c-4.3,19.2-21.4-6.5-27.5-13.2l21.1-21.3Z"></path><path class="st0" d="M156.3,87.1l21.1,21.3-19.8,20.9-7.7-6.7,11.5-13.1-11.4-13.2c-1-3.8,4.2-6.5,6.4-9.2Z"></path><path class="st0" d="M215.4,72.4l-10.1,4.4c-2.5-7.7-11.8-12.2-18.9-14.7l2.8-11.5c5.8.5,29.8,16.5,26.2,21.8Z"></path><path class="st0" d="M244.6,72.4l-10.1,4.4c-2.5-7.7-11.8-12.2-18.9-14.7l2.8-11.5c5.8.5,29.8,16.5,26.2,21.8Z"></path><polygon class="st0" points="88.5 284.1 88.5 295.8 100.1 295.7 100.1 307.4 88.5 307.4 88.5 319.1 76.8 319.1 76.8 307.4 65.1 307.4 65.1 295.7 76.8 295.8 76.8 284.1 88.5 284.1"></polygon></svg>