<svg xmlns="http://www.w3.org/2000/svg" id="Capa_1" viewBox="0 0 375.8 373.5"><defs><style>      .st0 {        fill: #007acc;      }    </style></defs><path class="st0" d="M303.1,299.7c1.5,1.1,30.8-4.4,35.7-4.6s10.6,2.1,11.3,8.6c1.3,11.2,1.3,43.9,0,55.1-.5,4.4-2.8,7.2-7,8.4l-272.6.3c-3.6.2-8.3-2.6-9.2-6.1s-.7-20.2-.2-23.2,3.1-5.2,5.6-6.1l132.8-18c23.2-26.4,29.5-63.2,18.7-96.5-14,4.2-27.1,2-40.9-1.7l-49.3,49.2c-8.5,5.1-15.6,3.1-23.1-2.4-8.2,15.2-27.7,21.5-42.1,10.4s-27.3-25.8-32.5-32.6c-11.4-14.8-4.6-33.9,10.8-42.5-6.5-8.8-7.7-17.9-.9-27L197.9,10.6c5.4-4.9,13.5-6,20.1-2.8,18.2,17,36.2,34.9,53.6,53,8.1,8.4,16,17.1,24,25.7.8,3,.9,6.5-1,9l-33,33.9-.8,1.8c3.7,5.4,2.6,19.8,4.9,24s5.8,4,7.2,5.4c10.5,9.8,19.8,20.1,26.8,32.8,17.9,32.8,19.3,72.3,3.5,106.3ZM190,108.5c-54.4,5.9-35.7,90.6,16.7,71.8,40.3-14.5,26-76.5-16.7-71.8ZM46,216.9c-3.8,3.8-3.8,8.2-1.1,12.6s23.9,25.3,27.8,28.2c9.2,6.8,19.8-2.4,15.3-12.6-9.2-8.1-18-20.2-27.4-27.7-4.8-3.9-9.7-5.5-14.6-.6Z"></path></svg>