<svg xmlns="http://www.w3.org/2000/svg" id="Capa_1" viewBox="0 0 375.8 373.5"><defs><style>      .st0 {        fill: #007acc;      }    </style></defs><path class="st0" d="M297.6,368.5H78.8c0-4.6-.1-9.3,0-13.9.5-27.5-1.6-56.2,0-83.8,2.5-42.3,48.3-44.8,76.9-62.3s7.4-5,9.3-9c-20.7-15.5-28-40.6-30.9-65.4-.3-2.9.5-6.2-.2-9s-5.5-9.5-6.8-14.2c-8.2-29.2,8.6-57.8,38-64.4-1.2-4.3-4.9-6.7-5.7-11.5-3.7-22.1,20.1-32.8,38.7-29.5,18.8,3.4,32.2,23.1,18.1,39.7,11.7,4.2,23.2,9.3,31.4,19,12.4,14.7,15.9,36.5,5.7,53.3-1.2,1.9-5.5,6.4-5.9,7.6-1.2,4.1-1.1,14.9-2.1,20.5-2.7,15.4-8.6,32.8-19,44.7-1.7,1.9-9.4,8.1-9.7,8.8-1.9,3.5,9.1,9.7,11.7,11,20.6,10.9,53,16.7,65,39,1.1,2.1,4.3,10.5,4.3,12.4v106.9ZM185.9,21.6c-14.8,2.3-13.8,14.6.7,16.5s21.9-1.5,19.3-10c-1.8-6-14.8-7.3-20-6.5ZM142.5,88.9c-.5,3.5,0,8.8,0,12.6s1,2.2,1.3,2.1c9.4-11.4,22.6-18.7,36.7-22.9,12.1-3.6,31.9-7,42.6,1.5,8,6.4,7.2,21.3,14.7,28.9,8-10.2,6.7-23.8,0-34.3-18.6-28.9-90-25.9-95.1,12.1ZM196,93.8c-13.3,1.4-43.5,12.8-45.9,27.9s1.4,20.2,2.9,27.2c4.9,22.8,20.1,49.9,47.8,40.3s29.1-41.2,30.4-61.6c-4.4-4.5-7.5-10.1-10-15.9s-4.1-13.5-5.7-15.3c-3.4-3.8-14.7-3.2-19.5-2.7ZM217.2,220.1c-5,0-11.6-11.6-14.8-12.5s-9.5,2.5-12.4,2.5-8.6-1.8-12.5-2.4l-13.9,13.6,27.3,18.8,25.9-18.3.5-1.7ZM280.9,351.8v-80.9c0-1.1-1.3-6.8-1.7-8.3-5.6-20.1-29.6-25.2-46.5-32.3-7.3,2.3-37.6,30.1-41.9,30.1s-39.7-30.5-43.4-30c-14.5,8.7-35.7,12.8-45.6,27.4-1.2,1.8-5.3,9.9-5.3,11.4v82.6h184.4Z"></path></svg>